<svg width="141" height="142" viewBox="0 0 141 142" fill="none" xmlns="http://www.w3.org/2000/svg">
<path d="M124.986 78.3478L126.248 78.6389L126.171 78.9711C126.062 79.4435 126.129 79.8457 126.371 80.1775C126.614 80.5094 127.059 80.8104 127.708 81.0806C128.357 81.3544 129.233 81.6402 130.339 81.9378L135.763 83.3985L134.169 90.3081L122.831 87.6935L123.147 86.3204L133.268 88.6541L134.243 84.4242L129.766 83.2053C128.588 82.887 127.602 82.5449 126.808 82.179C126.014 81.8132 125.447 81.3619 125.108 80.8251C124.77 80.2882 124.696 79.6027 124.889 78.7686L124.986 78.3478Z" fill="#F6F4F2"/>
<path d="M132.548 95.088L131.96 96.3438L123.664 92.4641L123.615 92.567L129.217 102.211L128.639 103.447L118.098 98.5174L118.695 97.241L126.971 101.111L127.019 101.008L121.429 91.3942L122.007 90.1589L132.548 95.088Z" fill="#F6F4F2"/>
<path d="M117.635 112.823L118.48 111.696C118.854 111.872 119.227 111.969 119.597 111.987C119.965 112.007 120.321 111.962 120.665 111.85C121.01 111.744 121.332 111.581 121.63 111.36C121.929 111.138 122.194 110.873 122.426 110.564C122.848 110 123.089 109.383 123.147 108.712C123.203 108.044 123.055 107.367 122.703 106.681C122.348 105.999 121.768 105.355 120.962 104.75C120.156 104.146 119.376 103.769 118.621 103.62C117.864 103.474 117.173 103.521 116.547 103.762C115.919 104.006 115.394 104.41 114.971 104.973C114.739 105.282 114.559 105.611 114.43 105.96C114.301 106.308 114.233 106.662 114.224 107.02C114.217 107.383 114.274 107.739 114.397 108.087C114.521 108.44 114.718 108.77 114.989 109.078L114.144 110.205C113.732 109.763 113.422 109.29 113.214 108.783C113.007 108.277 112.896 107.759 112.882 107.228C112.872 106.699 112.954 106.176 113.129 105.658C113.302 105.144 113.564 104.652 113.916 104.182C114.512 103.388 115.235 102.828 116.087 102.501C116.938 102.173 117.855 102.101 118.836 102.282C119.817 102.464 120.798 102.923 121.78 103.66C122.762 104.396 123.477 105.21 123.927 106.1C124.376 106.991 124.563 107.891 124.487 108.8C124.411 109.71 124.076 110.561 123.48 111.355C123.128 111.825 122.729 112.214 122.284 112.524C121.836 112.837 121.355 113.061 120.842 113.197C120.331 113.335 119.804 113.375 119.26 113.318C118.719 113.262 118.177 113.097 117.635 112.823Z" fill="#F6F4F2"/>
<path d="M117.374 116.54L118.215 117.465L111.759 123.338L110.918 122.413L113.625 119.951L106.636 112.268L107.678 111.32L114.667 119.003L117.374 116.54Z" fill="#F6F4F2"/>
<path d="M102.169 115.943L103.421 115.159L105.974 127.29L104.741 128.062L94.9451 120.466L96.1973 119.682L104.342 126.139L104.419 126.091L102.169 115.943ZM104.119 120.086L99.0715 123.245L98.4082 122.186L103.455 119.026L104.119 120.086Z" fill="#F6F4F2"/>
<path d="M97.8056 131.891L96.5076 132.378L93.2899 123.802L93.1835 123.842L90.4431 134.653L89.1664 135.132L85.0785 124.238L86.3978 123.743L89.6074 132.297L89.7138 132.257L92.4409 121.475L93.7176 120.996L97.8056 131.891ZM93.4653 136.626L92.295 137.065C92.0794 136.491 92.1017 135.947 92.3618 135.432C92.622 134.918 93.0925 134.533 93.7734 134.277C94.4437 134.026 95.046 134.008 95.5802 134.225C96.111 134.442 96.4841 134.838 96.6997 135.413L95.5293 135.852C95.4256 135.575 95.2582 135.361 95.0271 135.209C94.7926 135.058 94.4891 135.053 94.1167 135.192C93.7444 135.332 93.5176 135.537 93.4366 135.806C93.3519 136.076 93.3615 136.35 93.4653 136.626Z" fill="#F6F4F2"/>
<path d="M79.7108 122.665L80.0244 126.721L79.2766 126.779C79.0379 127.033 78.8217 127.382 78.6281 127.826C78.431 128.275 78.2809 128.864 78.1777 129.594C78.0711 130.328 78.0343 131.252 78.0672 132.366L78.1963 137.28L71.3078 137.812L70.5073 127.457L69.1704 127.56L68.8586 123.527L70.1955 123.423L70.411 126.211L78.5911 125.578L78.3739 122.768L79.7108 122.665ZM77.5998 126.909L71.8442 127.354L72.5484 136.463L76.831 136.132L76.7303 132.469C76.7102 131.62 76.7303 130.847 76.7904 130.151C76.8509 129.459 76.9494 128.841 77.0861 128.299C77.223 127.76 77.3942 127.297 77.5998 126.909Z" fill="#F6F4F2"/>
<path d="M66.7252 126.059L68.1913 126.241L62.5197 137.263L61.0762 137.084L58.2672 125.01L59.7332 125.192L61.9792 135.341L62.0695 135.352L66.7252 126.059ZM65.6248 130.503L59.7155 129.77L59.8692 128.53L65.7785 129.262L65.6248 130.503Z" fill="#F6F4F2"/>
<path d="M58.0907 124.976L57.6908 126.208L57.3666 126.103C56.9054 125.953 56.499 125.985 56.1473 126.197C55.7956 126.41 55.4569 126.827 55.1312 127.45C54.802 128.072 54.441 128.921 54.0482 129.996L52.1208 135.272L45.3762 133.084L48.9682 122.015L50.3085 122.45L47.1023 132.33L51.2312 133.67L52.8353 129.316C53.2551 128.17 53.6818 127.217 54.1154 126.458C54.5489 125.698 55.0479 125.173 55.6122 124.883C56.1765 124.592 56.8657 124.579 57.68 124.843L58.0907 124.976Z" fill="#F6F4F2"/>
<path d="M42.6731 126.419L39.7677 124.817C39.038 124.414 38.4886 123.955 38.1195 123.44C37.7471 122.923 37.5514 122.376 37.5324 121.799C37.51 121.22 37.6617 120.635 37.9874 120.045C38.313 119.455 38.7313 119.006 39.2421 118.7C39.7497 118.391 40.326 118.249 40.971 118.271C41.6127 118.292 42.2984 118.504 43.028 118.906L46.8489 121.014L41.2284 131.203L39.9945 130.522L45.0223 121.408L42.4352 119.981C41.9709 119.725 41.5266 119.601 41.1025 119.609C40.6731 119.619 40.2941 119.726 39.9655 119.929C39.6317 120.135 39.3733 120.403 39.1903 120.735C38.9214 121.222 38.8773 121.745 39.0582 122.303C39.2372 122.865 39.6749 123.338 40.3715 123.722L43.2769 125.325L42.6731 126.419Z" fill="#F6F4F2"/>
<path d="M30.4406 124.898L29.388 123.961L36.2629 116.237L33.2069 113.517L26.3321 121.242L25.2795 120.305L32.1543 112.58L29.0984 109.86L22.2236 117.585L21.171 116.648L28.9071 107.956L38.1767 116.206L30.4406 124.898Z" fill="#F6F4F2"/>
<path d="M27.6133 106.051L18.2032 112.896L14.0721 107.217L15.0829 106.481L18.3852 111.021L21.5647 108.708L18.4764 104.463L19.4873 103.727L22.5756 107.973L25.7735 105.647L22.4178 101.033L23.4287 100.298L27.6133 106.051Z" fill="#F6F4F2"/>
<path d="M16.6852 57.0783L15.469 56.6324L15.5863 56.3123C15.7533 55.8571 15.7372 55.4498 15.5382 55.0903C15.3391 54.7309 14.9344 54.3767 14.3241 54.0279C13.715 53.6754 12.8806 53.2827 11.8209 52.8498L6.62086 50.7251L9.06203 44.0677L19.9871 48.0737L19.502 49.3967L9.75051 45.821L8.25608 49.8965L12.5464 51.6634C13.6759 52.126 14.6119 52.5882 15.3543 53.05C16.0968 53.5119 16.6027 54.0303 16.872 54.6051C17.1413 55.1799 17.1286 55.8692 16.8339 56.6729L16.6852 57.0783Z" fill="#F6F4F2"/>
<path d="M11.1998 39.6274L11.9354 38.4523L19.6988 43.3122L19.7591 43.2159L15.3723 32.962L16.0958 31.8062L25.959 37.9806L25.2113 39.1749L17.4672 34.3271L17.4069 34.4234L21.7865 44.6459L21.0629 45.8017L11.1998 39.6274Z" fill="#F6F4F2"/>
<path d="M28.0376 23.9321L27.0631 24.95C26.7127 24.7299 26.3547 24.589 25.989 24.5273C25.6259 24.4629 25.267 24.4654 24.9122 24.5347C24.5572 24.5987 24.2184 24.7226 23.8955 24.9065C23.5727 25.0904 23.2777 25.3218 23.0105 25.6009C22.5233 26.1099 22.2105 26.694 22.0722 27.3534C21.9365 28.0101 22.0024 28.6998 22.27 29.4227C22.5402 30.1428 23.0393 30.8513 23.7671 31.548C24.4949 32.2448 25.2244 32.7125 25.9557 32.951C26.6895 33.1869 27.3815 33.2227 28.0316 33.0585C28.6843 32.8915 29.2543 32.5536 29.7415 32.0447C30.0087 31.7656 30.2271 31.4608 30.3967 31.1302C30.5663 30.7997 30.6767 30.457 30.7279 30.1023C30.779 29.7422 30.7645 29.3822 30.6843 29.0222C30.604 28.6569 30.4476 28.3054 30.2152 27.9675L31.1896 26.9497C31.5459 27.4375 31.7967 27.9451 31.9422 28.4724C32.0876 28.9997 32.1353 29.5277 32.0852 30.0566C32.0324 30.5829 31.8881 31.0924 31.6524 31.5851C31.4193 32.0751 31.0997 32.5321 30.6937 32.9562C30.0074 33.6731 29.222 34.143 28.3374 34.3659C27.4528 34.5888 26.5344 34.5512 25.5822 34.2532C24.63 33.9551 23.7106 33.3818 22.8241 32.5331C21.9376 31.6844 21.3247 30.7909 20.9854 29.8526C20.6461 28.9142 20.5686 27.9984 20.7527 27.1049C20.9368 26.2114 21.372 25.4063 22.0583 24.6894C22.4643 24.2653 22.907 23.9261 23.3864 23.6718C23.8684 23.4149 24.3725 23.2498 24.8986 23.1767C25.4221 23.101 25.9504 23.1243 26.4835 23.2467C27.0139 23.3664 27.5319 23.5948 28.0376 23.9321Z" fill="#F6F4F2"/>
<path d="M28.7263 20.2539L28.0021 19.235L35.1155 14.1789L35.8397 15.1977L32.8573 17.3176L38.8746 25.7833L37.7261 26.5997L31.7087 18.134L28.7263 20.2539Z" fill="#F6F4F2"/>
<path d="M43.588 22.7187L42.2498 23.3445L41.1912 10.9938L42.5088 10.3776L51.3084 19.1086L49.9702 19.7343L42.671 12.334L42.5886 12.3726L43.588 22.7187ZM42.1567 18.3702L47.5506 15.8479L48.0801 16.9802L42.6862 19.5025L42.1567 18.3702Z" fill="#F6F4F2"/>
<path d="M49.7616 7.38566L51.1089 7.05875L53.2687 15.9596L53.3791 15.9328L57.4035 5.53137L58.7287 5.20982L61.4726 16.518L60.1033 16.8503L57.9489 7.97159L57.8384 7.99839L53.8307 18.3723L52.5055 18.6939L49.7616 7.38566ZM54.6414 3.20808L55.8562 2.91333C56.0009 3.50966 55.9131 4.04742 55.5928 4.52661C55.2725 5.00579 54.759 5.33114 54.0522 5.50263C53.3565 5.67145 52.7565 5.6163 52.2522 5.33719C51.7516 5.05718 51.429 4.61902 51.2843 4.02268L52.499 3.72793C52.5687 4.01505 52.709 4.248 52.92 4.42677C53.1347 4.60465 53.4353 4.6467 53.8218 4.55292C54.2083 4.45913 54.458 4.28355 54.571 4.02617C54.6876 3.7679 54.7111 3.49521 54.6414 3.20808Z" fill="#F6F4F2"/>
<path d="M66.9458 18.6245L67.1342 14.5607L67.8834 14.5954C68.1515 14.3727 68.409 14.0529 68.6559 13.6358C68.9067 13.2151 69.1282 12.649 69.3204 11.9375C69.5166 11.2223 69.667 10.3097 69.7715 9.19974L70.2485 4.30748L77.1502 4.62732L76.6694 15.0025L78.0089 15.0646L77.8216 19.1057L76.4821 19.0437L76.6115 16.2512L68.4158 15.8714L68.2853 18.6866L66.9458 18.6245ZM69.5634 14.6732L75.3299 14.9405L75.7529 5.8139L71.462 5.61506L71.111 9.26181C71.0263 10.1073 70.9113 10.8717 70.7658 11.5551C70.6206 12.2347 70.4468 12.8353 70.2444 13.3568C70.0422 13.8745 69.8152 14.3133 69.5634 14.6732Z" fill="#F6F4F2"/>
<path d="M80.1561 16.7949L78.7232 16.4356L85.6975 6.18769L87.1084 6.54142L88.423 18.8675L86.9901 18.5083L85.9993 8.16125L85.9112 8.13915L80.1561 16.7949ZM81.7906 12.5186L87.5664 13.9666L87.2624 15.1791L81.4866 13.731L81.7906 12.5186Z" fill="#F6F4F2"/>
<path d="M88.6494 18.9112L89.1981 17.7377L89.5069 17.8822C89.9461 18.0875 90.3533 18.1065 90.7285 17.9391C91.1037 17.7716 91.4913 17.3988 91.8913 16.8206C92.2947 16.2441 92.7576 15.4465 93.2799 14.4279L95.8431 9.4294L102.266 12.4331L97.3373 22.9739L96.0609 22.377L100.46 12.9685L96.5283 11.1297L94.3996 15.2526C93.8418 16.3382 93.3009 17.231 92.777 17.9311C92.2531 18.6311 91.6933 19.0906 91.0975 19.3096C90.5016 19.5286 89.816 19.4568 89.0405 19.0942L88.6494 18.9112Z" fill="#F6F4F2"/>
<path d="M103.949 19.2147L106.64 21.1568C107.315 21.6445 107.805 22.1663 108.109 22.7222C108.417 23.2804 108.545 23.8471 108.494 24.4223C108.446 24.9998 108.225 25.5619 107.83 26.1086C107.436 26.6553 106.966 27.0499 106.422 27.2924C105.881 27.5372 105.292 27.6094 104.654 27.5089C104.02 27.4106 103.365 27.1176 102.689 26.6298L99.1508 24.0758L105.961 14.6408L107.104 15.4655L101.012 23.9055L103.407 25.6347C103.837 25.9451 104.263 26.1218 104.685 26.1649C105.113 26.2071 105.502 26.1469 105.853 25.9844C106.209 25.8211 106.498 25.5859 106.719 25.2787C107.045 24.8272 107.152 24.3135 107.04 23.7374C106.93 23.1582 106.553 22.6359 105.908 22.1703L103.218 20.2282L103.949 19.2147Z" fill="#F6F4F2"/>
<path d="M115.981 22.1857L116.914 23.2417L109.164 30.0884L111.872 33.1542L119.622 26.3075L120.555 27.3635L112.805 34.2102L115.514 37.276L123.264 30.4292L124.197 31.4852L115.476 39.1897L107.26 29.8901L115.981 22.1857Z" fill="#F6F4F2"/>
<path d="M116.652 41.3504L126.82 35.6923L130.235 41.8289L129.143 42.4367L126.413 37.5314L122.977 39.4432L125.53 44.0308L124.438 44.6386L121.885 40.051L118.429 41.9739L121.203 46.9586L120.111 47.5664L116.652 41.3504Z" fill="#F6F4F2"/>
</svg>
