<svg width="210" height="35" viewBox="0 0 210 35" fill="none" xmlns="http://www.w3.org/2000/svg">
<path d="M9.0811 34.2798V3.74139H0.00439453V3.52932L1.00114 1.4086H22.3992V1.62067L21.4025 3.74139H13.3225V32.3712L9.29317 34.2798H9.0811Z" fill="#F6F4F2"/>
<path d="M23.5656 34.2798V11.5881C23.5656 8.53423 24.52 6.02471 26.4286 4.0595C28.4362 2.00947 31.0518 0.984451 34.2753 0.984451C37.4423 0.984451 40.0578 2.00947 42.122 4.0595C44.0306 5.95402 44.985 8.46354 44.985 11.5881V32.3712L40.9556 34.2798H40.7435V18.5865H27.8071V32.3712L23.7777 34.2798H23.5656ZM27.8071 16.2537H40.7435V10.1036C40.7435 8.20906 40.2345 6.67506 39.2166 5.50159C37.9442 4.04536 36.2971 3.31725 34.2753 3.31725C32.2394 3.31725 30.5923 4.04536 29.334 5.50159C28.3161 6.6892 27.8071 8.2232 27.8071 10.1036V16.2537Z" fill="#F6F4F2"/>
<path d="M53.4679 34.2798V11.5881C53.4679 8.53423 54.4222 6.02471 56.3308 4.0595C58.3385 2.00947 60.954 0.984451 64.1775 0.984451C67.09 0.984451 69.5712 2.00947 71.6213 4.0595C72.1302 4.56848 72.512 5.06331 72.7665 5.54401C73.0916 5.04917 73.4875 4.57555 73.9541 4.12313C76.0889 2.03068 78.556 0.984451 81.3554 0.984451C84.5223 0.984451 87.1379 2.00947 89.2021 4.0595C91.1107 5.95402 92.0651 8.46354 92.0651 11.5881V32.3712L88.0357 34.2798H87.8236V10.1036C87.8236 8.20906 87.3146 6.67506 86.2967 5.50159C85.0384 4.04536 83.3913 3.31725 81.3554 3.31725C79.3195 3.31725 77.6724 4.04536 76.4141 5.50159C75.3962 6.67506 74.8872 8.20906 74.8872 10.1036V32.3712L70.8578 34.2798H70.6457V10.1036C70.6457 8.20906 70.1368 6.67506 69.1188 5.50159C67.8605 4.04536 66.2134 3.31725 64.1775 3.31725C62.1416 3.31725 60.4945 4.04536 59.2362 5.50159C58.2183 6.67506 57.7093 8.20906 57.7093 10.1036V32.3712L53.6799 34.2798H53.4679Z" fill="#F6F4F2"/>
<path d="M100.548 34.2798V11.5881C100.548 8.53423 101.502 6.02471 103.411 4.0595C105.419 2.00947 108.034 0.984451 111.258 0.984451C114.425 0.984451 117.04 2.00947 119.104 4.0595C121.013 5.95402 121.967 8.46354 121.967 11.5881V32.3712L117.938 34.2798H117.726V18.5865H104.789V32.3712L100.76 34.2798H100.548ZM104.789 16.2537H117.726V10.1036C117.726 8.20906 117.217 6.67506 116.199 5.50159C114.926 4.04536 113.279 3.31725 111.258 3.31725C109.222 3.31725 107.575 4.04536 106.316 5.50159C105.298 6.6892 104.789 8.2232 104.789 10.1036V16.2537Z" fill="#F6F4F2"/>
<path d="M129.602 23.6762L133.631 21.7676H133.843V24.9911C133.843 26.7159 134.352 28.1651 135.37 29.3385C136.629 30.7948 138.276 31.5229 140.312 31.5229C142.333 31.5229 143.98 30.7948 145.253 29.3385C146.257 28.1934 146.759 26.2352 146.759 23.4641C146.759 21.2869 146.349 19.7175 145.529 18.7561C144.397 17.4271 142.658 16.7626 140.312 16.7626C137.569 16.7626 135.342 15.9992 133.631 14.4723C132.217 13.1998 131.511 11.4043 131.511 9.08562C131.511 6.47005 132.387 4.4483 134.14 3.02035C135.809 1.66308 137.866 0.984451 140.312 0.984451C142.757 0.984451 144.815 1.66308 146.483 3.02035C148.236 4.4483 149.113 6.40644 149.113 8.89476L145.083 10.8034H144.871V8.08888C144.871 6.47713 144.412 5.27538 143.493 4.48364C142.602 3.70604 141.542 3.31725 140.312 3.31725C138.94 3.31725 137.837 3.74847 137.003 4.6109C136.169 5.47333 135.752 6.97196 135.752 9.10683C135.752 11.0013 136.07 12.3021 136.706 13.009C137.555 13.9562 138.756 14.4298 140.312 14.4298C143.874 14.4298 146.525 15.2287 148.264 16.8263C150.088 18.5087 151 20.7072 151 23.4217C151 26.3059 150.053 28.7589 148.158 30.7806C146.221 32.8307 143.606 33.8557 140.312 33.8557C137.017 33.8557 134.402 32.8307 132.465 30.7806C130.556 28.7589 129.602 26.3907 129.602 23.6762Z" fill="#F6F4F2"/>
<path d="M158.656 34.2798V2.46896L162.685 0.560303H162.897V16.2537H175.41V2.46896L179.439 0.560303H179.651V32.3712L175.622 34.2798H175.41V18.5865H162.897V32.3712L158.868 34.2798H158.656Z" fill="#F6F4F2"/>
<path d="M188.134 34.2798V11.5881C188.134 8.53423 189.088 6.02471 190.997 4.0595C193.004 2.00947 195.62 0.984451 198.844 0.984451C202.011 0.984451 204.626 2.00947 206.69 4.0595C208.599 5.95402 209.553 8.46354 209.553 11.5881V32.3712L205.524 34.2798H205.312V18.5865H192.375V32.3712L188.346 34.2798H188.134ZM192.375 16.2537H205.312V10.1036C205.312 8.20906 204.803 6.67506 203.785 5.50159C202.512 4.04536 200.865 3.31725 198.844 3.31725C196.808 3.31725 195.161 4.04536 193.902 5.50159C192.884 6.6892 192.375 8.2232 192.375 10.1036V16.2537Z" fill="#F6F4F2"/>
</svg>
