<svg width="24" height="24" viewBox="0 0 24 24" fill="none" xmlns="http://www.w3.org/2000/svg">
<circle opacity="0.2" cx="11.8723" cy="11.7163" r="11.5273" fill="#F6F4F2"/>
<path d="M11.8717 11.3603C11.3996 11.3603 10.9469 11.1728 10.6131 10.839C10.2793 10.5052 10.0918 10.0525 10.0918 9.58042C10.0918 9.10836 10.2793 8.65563 10.6131 8.32184C10.9469 7.98804 11.3996 7.80051 11.8717 7.80051C12.3437 7.80051 12.7965 7.98804 13.1303 8.32184C13.4641 8.65563 13.6516 9.10836 13.6516 9.58042C13.6516 9.81416 13.6055 10.0456 13.5161 10.2616C13.4267 10.4775 13.2955 10.6737 13.1303 10.839C12.965 11.0043 12.7688 11.1354 12.5528 11.2248C12.3369 11.3143 12.1054 11.3603 11.8717 11.3603ZM11.8717 4.59668C10.5499 4.59668 9.28228 5.12175 8.34764 6.05638C7.41301 6.99102 6.88794 8.25865 6.88794 9.58042C6.88794 13.3182 11.8717 18.8359 11.8717 18.8359C11.8717 18.8359 16.8554 13.3182 16.8554 9.58042C16.8554 8.25865 16.3303 6.99102 15.3957 6.05638C14.4611 5.12175 13.1934 4.59668 11.8717 4.59668Z" fill="#F6F4F2"/>
</svg>
