<svg width="15" height="21" viewBox="0 0 15 21" fill="none" xmlns="http://www.w3.org/2000/svg">
<path d="M7.76831 9.91211C7.10527 9.91211 6.46938 9.64872 6.00054 9.17988C5.5317 8.71104 5.26831 8.07515 5.26831 7.41211C5.26831 6.74907 5.5317 6.11318 6.00054 5.64434C6.46938 5.1755 7.10527 4.91211 7.76831 4.91211C8.43135 4.91211 9.06724 5.1755 9.53608 5.64434C10.0049 6.11318 10.2683 6.74907 10.2683 7.41211C10.2683 7.74041 10.2036 8.0655 10.078 8.36882C9.95237 8.67213 9.76822 8.94773 9.53608 9.17988C9.30393 9.41202 9.02833 9.59617 8.72502 9.72181C8.42171 9.84745 8.09662 9.91211 7.76831 9.91211ZM7.76831 0.412109C5.9118 0.412109 4.13132 1.14961 2.81856 2.46236C1.50581 3.77512 0.768311 5.55559 0.768311 7.41211C0.768311 12.6621 7.76831 20.4121 7.76831 20.4121C7.76831 20.4121 14.7683 12.6621 14.7683 7.41211C14.7683 5.55559 14.0308 3.77512 12.7181 2.46236C11.4053 1.14961 9.62483 0.412109 7.76831 0.412109Z" fill="#F6F4F2"/>
</svg>
