<svg width="12" height="18" viewBox="0 0 12 18" fill="none" xmlns="http://www.w3.org/2000/svg">
<path fill-rule="evenodd" clip-rule="evenodd" d="M8.34295 16.9918C8.47581 17.2066 8.68826 17.36 8.93388 17.4186C9.1795 17.4772 9.43834 17.4362 9.65383 17.3046C9.86933 17.173 10.024 16.9614 10.084 16.7161C10.144 16.4708 10.1045 16.2118 9.97406 15.9955L7.78505 12.444L7.32563 10.5851C7.30362 10.6108 7.28203 10.6367 7.26061 10.6629L5.77598 12.2597L5.95786 12.9948C5.97879 13.1114 6.02128 13.2231 6.08314 13.3241L8.34295 16.9918ZM1.04103 16.1438L2.46357 12.3759C2.51352 12.2428 2.59237 12.1224 2.69444 12.0234L4.91733 9.56253V5.52509C4.91793 5.21889 5.03983 4.92539 5.25636 4.70887C5.47288 4.49235 5.76637 4.37045 6.07258 4.36985C6.3839 4.36985 6.5159 4.45597 6.76889 4.58266L11.5733 7.35651C11.6701 7.41254 11.7548 7.48707 11.8228 7.57585C11.8907 7.66463 11.9405 7.76593 11.9692 7.87395C11.998 7.98197 12.0053 8.0946 11.9905 8.20541C11.9758 8.31622 11.9393 8.42305 11.8833 8.51978C11.8273 8.61652 11.7528 8.70127 11.664 8.7692C11.5752 8.83713 11.4739 8.88691 11.3659 8.91569C11.2579 8.94448 11.1452 8.9517 11.0344 8.93696C10.9236 8.92222 10.8168 8.88579 10.72 8.82976L7.22775 6.81347V9.52249C7.22775 10.0207 7.16386 10.0018 6.88872 10.3386L4.20732 13.2226L2.84779 16.8241C2.75758 17.0636 2.57589 17.2575 2.3427 17.3631C2.10951 17.4687 1.84392 17.4774 1.60436 17.3872C1.36479 17.2969 1.17088 17.1153 1.06528 16.8821C0.959672 16.6489 0.951028 16.3833 1.04124 16.1437L1.04103 16.1438ZM5.62527 0.543457C5.34637 0.543457 5.07374 0.62616 4.84184 0.781108C4.60995 0.936056 4.42921 1.15629 4.32248 1.41396C4.21575 1.67163 4.18782 1.95516 4.24223 2.2287C4.29664 2.50224 4.43094 2.7535 4.62816 2.95071C4.82537 3.14792 5.07663 3.28223 5.35017 3.33664C5.62371 3.39105 5.90724 3.36312 6.16491 3.25639C6.42258 3.14966 6.64281 2.96892 6.79776 2.73702C6.95271 2.50513 7.03541 2.23249 7.03541 1.95359C7.03541 1.5796 6.88684 1.22093 6.62239 0.956477C6.35794 0.692025 5.99926 0.543457 5.62527 0.543457ZM4.42424 8.03356V5.56303L3.30605 6.71063L0.96869 7.36965C0.751988 7.42976 0.567879 7.57319 0.456567 7.76859C0.345256 7.964 0.315787 8.19551 0.374596 8.41257C0.433405 8.62963 0.575714 8.8146 0.770445 8.92709C0.965175 9.03958 1.19651 9.07044 1.41392 9.01295L4.06383 8.29557C4.15373 8.27235 4.23551 8.22482 4.30019 8.15821L4.42424 8.03356Z" fill="#F6F4F2"/>
</svg>
