<svg width="1252" height="202" viewBox="0 0 1252 202" fill="none" xmlns="http://www.w3.org/2000/svg">
<g opacity="0.1">
<path d="M54.7338 201.572V19.2718H0.550049V18.0059L6.50013 5.34617H134.237V6.61213L128.287 19.2718H80.0533V190.179L55.9998 201.572H54.7338Z" fill="#F6F4F2"/>
<path d="M141.2 201.572V66.113C141.2 47.8829 146.897 32.9022 158.291 21.1708C170.275 8.93307 185.889 2.8142 205.132 2.8142C224.037 2.8142 239.651 8.93307 251.973 21.1708C263.367 32.4802 269.063 47.4609 269.063 66.113V190.179L245.01 201.572H243.744V107.89H166.519V190.179L142.466 201.572H141.2ZM166.519 93.9644H243.744V57.2512C243.744 45.9418 240.706 36.7845 234.629 29.7795C227.033 21.0864 217.201 16.7399 205.132 16.7399C192.978 16.7399 183.146 21.0864 175.634 29.7795C169.558 36.8689 166.519 46.0262 166.519 57.2512V93.9644Z" fill="#F6F4F2"/>
<path d="M319.702 201.572V66.113C319.702 47.8829 325.399 32.9022 336.793 21.1708C348.778 8.93307 364.391 2.8142 383.634 2.8142C401.02 2.8142 415.832 8.93307 428.07 21.1708C431.108 24.2092 433.387 27.1631 434.906 30.0327C436.847 27.0787 439.21 24.2514 441.996 21.5507C454.74 9.05971 469.467 2.8142 486.178 2.8142C505.083 2.8142 520.697 8.93307 533.019 21.1708C544.413 32.4802 550.11 47.4609 550.11 66.113V190.179L526.056 201.572H524.79V57.2512C524.79 45.9418 521.752 36.7845 515.675 29.7795C508.164 21.0864 498.332 16.7399 486.178 16.7399C474.025 16.7399 464.192 21.0864 456.681 29.7795C450.604 36.7845 447.566 45.9418 447.566 57.2512V190.179L423.512 201.572H422.246V57.2512C422.246 45.9418 419.208 36.7845 413.131 29.7795C405.62 21.0864 395.788 16.7399 383.634 16.7399C371.481 16.7399 361.648 21.0864 354.137 29.7795C348.06 36.7845 345.022 45.9418 345.022 57.2512V190.179L320.968 201.572H319.702Z" fill="#F6F4F2"/>
<path d="M600.749 201.572V66.113C600.749 47.8829 606.446 32.9022 617.84 21.1708C629.824 8.93307 645.438 2.8142 664.681 2.8142C683.586 2.8142 699.2 8.93307 711.522 21.1708C722.916 32.4802 728.612 47.4609 728.612 66.113V190.179L704.559 201.572H703.293V107.89H626.068V190.179L602.015 201.572H600.749ZM626.068 93.9644H703.293V57.2512C703.293 45.9418 700.255 36.7845 694.178 29.7795C686.582 21.0864 676.75 16.7399 664.681 16.7399C652.527 16.7399 642.695 21.0864 635.183 29.7795C629.107 36.8689 626.068 46.0262 626.068 57.2512V93.9644Z" fill="#F6F4F2"/>
<path d="M774.188 138.274L798.241 126.88H799.507V146.123C799.507 156.419 802.545 165.07 808.622 172.075C816.133 180.768 825.966 185.115 838.119 185.115C850.188 185.115 860.021 180.768 867.617 172.075C873.609 165.239 876.605 153.55 876.605 137.008C876.605 124.01 874.157 114.642 869.262 108.903C862.51 100.969 852.129 97.0028 838.119 97.0028C821.746 97.0028 808.453 92.4453 798.241 83.3303C789.801 75.7344 785.581 65.0157 785.581 51.1744C785.581 35.5607 790.814 23.4918 801.279 14.9676C811.238 6.86531 823.518 2.8142 838.119 2.8142C852.72 2.8142 865 6.86531 874.959 14.9676C885.424 23.4918 890.657 35.181 890.657 50.0351L866.604 61.4288H865.338V45.2244C865.338 35.603 862.595 28.4291 857.109 23.7028C851.792 19.0608 845.462 16.7399 838.119 16.7399C829.933 16.7399 823.35 19.3141 818.37 24.4624C813.391 29.6107 810.901 38.5569 810.901 51.301C810.901 62.6104 812.8 70.3751 816.598 74.595C821.662 80.2497 828.835 83.077 838.119 83.077C859.388 83.077 875.212 87.8455 885.593 97.3826C896.481 107.426 901.924 120.55 901.924 136.754C901.924 153.972 896.27 168.615 884.96 180.684C873.398 192.921 857.784 199.04 838.119 199.04C818.454 199.04 802.841 192.921 791.278 180.684C779.884 168.615 774.188 154.478 774.188 138.274Z" fill="#F6F4F2"/>
<path d="M947.626 201.572V11.676L971.68 0.282227H972.946V93.9644H1047.64V11.676L1071.69 0.282227H1072.96V190.179L1048.9 201.572H1047.64V107.89H972.946V190.179L948.892 201.572H947.626Z" fill="#F6F4F2"/>
<path d="M1123.6 201.572V66.113C1123.6 47.8829 1129.29 32.9022 1140.69 21.1708C1152.67 8.93307 1168.29 2.8142 1187.53 2.8142C1206.43 2.8142 1222.05 8.93307 1234.37 21.1708C1245.76 32.4802 1251.46 47.4609 1251.46 66.113V190.179L1227.41 201.572H1226.14V107.89H1148.92V190.179L1124.86 201.572H1123.6ZM1148.92 93.9644H1226.14V57.2512C1226.14 45.9418 1223.1 36.7845 1217.03 29.7795C1209.43 21.0864 1199.6 16.7399 1187.53 16.7399C1175.38 16.7399 1165.54 21.0864 1158.03 29.7795C1151.95 36.8689 1148.92 46.0262 1148.92 57.2512V93.9644Z" fill="#F6F4F2"/>
</g>
</svg>
